<svg width="32" height="32" viewBox="0 0 32 32" fill="none" xmlns="http://www.w3.org/2000/svg">
<path d="M15.9997 1.66666C23.9157 1.66666 30.3335 8.08373 30.3337 15.9997C30.3337 23.9157 23.9158 30.3336 15.9997 30.3336C8.08376 30.3335 1.66669 23.9156 1.66669 15.9997C1.66686 8.08384 8.08387 1.66683 15.9997 1.66666ZM15.9938 19.9997C15.2608 19.9998 14.6667 20.5973 14.6667 21.3336C14.6669 22.0698 15.2609 22.6665 15.9938 22.6667H16.0056C16.7385 22.6667 17.3335 22.0699 17.3337 21.3336C17.3337 20.5973 16.7386 19.9997 16.0056 19.9997H15.9938ZM15.9997 9.33365C15.2635 9.33381 14.6667 9.93038 14.6667 10.6667V15.9997C14.6667 16.7359 15.2635 17.3335 15.9997 17.3336C16.7361 17.3336 17.3337 16.736 17.3337 15.9997V10.6667C17.3337 9.93028 16.7361 9.33365 15.9997 9.33365Z" fill="#FAFAFA"/>
</svg>
