<svg width="16" height="16" viewBox="0 0 16 16" fill="none" xmlns="http://www.w3.org/2000/svg">
<path d="M10.6667 8.6V11.4C10.6667 13.7333 9.73337 14.6667 7.40004 14.6667H4.60004C2.26671 14.6667 1.33337 13.7333 1.33337 11.4V8.6C1.33337 6.26667 2.26671 5.33333 4.60004 5.33333H7.40004C9.73337 5.33333 10.6667 6.26667 10.6667 8.6Z" stroke="#A1A1AA" stroke-linecap="round" stroke-linejoin="round"/>
<path d="M14.6667 4.6V7.4C14.6667 9.73333 13.7334 10.6667 11.4 10.6667H10.6667V8.6C10.6667 6.26667 9.73337 5.33333 7.40004 5.33333H5.33337V4.6C5.33337 2.26667 6.26671 1.33333 8.60004 1.33333H11.4C13.7334 1.33333 14.6667 2.26667 14.6667 4.6Z" stroke="#A1A1AA" stroke-linecap="round" stroke-linejoin="round"/>
</svg>
